<?xml version="1.0" encoding="utf-8"?>
<svg viewBox="0 0 500 500" xmlns="http://www.w3.org/2000/svg">
  <path d="M 433.558 41.762 L 81.558 41.762 C 55.058 41.762 33.558 63.262 33.558 89.762 L 33.558 441.762 C 33.558 468.262 55.058 489.762 81.558 489.762 L 433.558 489.762 C 460.058 489.762 481.558 468.262 481.558 441.762 L 481.558 89.762 C 481.558 63.262 460.058 41.762 433.558 41.762 Z M 384.658 200.562 C 384.858 203.362 384.858 206.262 384.858 209.062 C 384.858 295.762 318.858 395.662 198.258 395.662 C 161.058 395.662 126.558 384.862 97.558 366.262 C 102.858 366.862 107.958 367.062 113.358 367.062 C 144.058 367.062 172.258 356.662 194.758 339.062 C 165.958 338.462 141.758 319.562 133.458 293.562 C 143.558 295.062 152.658 295.062 163.058 292.362 C 133.058 286.262 110.558 259.862 110.558 227.962 L 110.558 227.162 C 119.258 232.062 129.458 235.062 140.158 235.462 C 121.887 223.309 110.922 202.807 110.958 180.862 C 110.958 168.662 114.158 157.462 119.858 147.762 C 152.158 187.562 200.658 213.562 255.058 216.362 C 245.758 171.862 279.058 135.762 319.058 135.762 C 337.958 135.762 354.958 143.662 366.958 156.462 C 381.758 153.662 395.958 148.162 408.558 140.662 C 403.658 155.862 393.358 168.662 379.758 176.762 C 392.958 175.362 405.758 171.662 417.558 166.562 C 408.658 179.662 397.458 191.262 384.658 200.562 Z" style="fill: rgb(255, 255, 255);"/>
</svg>