<?xml version="1.0" encoding="utf-8"?>
<svg viewBox="0 0 500 500" xmlns="http://www.w3.org/2000/svg">
  <path d="M 483.818 133.04 C 478.215 111.945 461.708 95.33 440.75 89.692 C 402.76 79.447 250.426 79.447 250.426 79.447 C 250.426 79.447 98.094 79.447 60.103 89.692 C 39.145 95.331 22.637 111.945 17.034 133.04 C 6.856 171.277 6.856 251.053 6.856 251.053 C 6.856 251.053 6.856 330.831 17.034 369.067 C 22.637 390.163 39.145 406.084 60.103 411.723 C 98.094 421.968 250.426 421.968 250.426 421.968 C 250.426 421.968 402.759 421.968 440.75 411.723 C 461.708 406.084 478.215 390.163 483.818 369.067 C 493.997 330.831 493.997 251.053 493.997 251.053 C 493.997 251.053 493.997 171.277 483.818 133.04 Z M 200.605 323.485 L 200.605 178.622 L 327.926 251.055 L 200.605 323.485 Z" style="fill: rgb(255, 255, 255);"/>
</svg>